<?xml version="1.0" standalone="no"?>
<svg
  width="800"
  height="800"
  viewBox="0 0 400 400"
  xmlns="http://www.w3.org/2000/svg"
>
  <g transform="translate(200,200)">
    <path d="M58.3,-95.9C75.9,-79.4,90.7,-63.8,112.5,-43.4C134.4,-22.9,163.2,2.3,154.8,18.3C146.4,34.3,100.8,41.1,79.4,72.6C58,104.2,60.8,160.5,47.8,165.6C34.7,170.8,5.8,124.7,-20.4,102.1C-46.6,79.5,-70.2,80.4,-72.4,68.1C-74.7,55.9,-55.7,30.6,-53.5,10.9C-51.4,-8.8,-66.2,-22.9,-76.6,-49.4C-87,-76,-92.9,-115,-79.5,-133.3C-66,-151.6,-33,-149.3,-6.3,-139.5C20.4,-129.7,40.7,-112.4,58.3,-95.9Z" fill="#319795" />
  </g>
</svg>
